<svg xmlns="http://www.w3.org/2000/svg" class="tw-svg__asset tw-svg__asset--menuitem tw-svg__asset--inherit" width="20" height="20" version="1.1" viewBox="0 0 20 20" x="0px" y="0px"><path d="M0.7,0.7 L6.3,0.7 C6.68659932,0.7 7,1.01340068 7,1.4 L7,7 C7,7.38659932 6.68659932,7.7 6.3,7.7 L0.7,7.7 C0.313400675,7.7 3.6500856e-13,7.38659932 3.63931107e-13,7 L3.64153152e-13,1.4 C3.64105807e-13,1.01340068 0.313400675,0.7 0.7,0.7 Z M11.9,0.7 L17.5,0.7 C17.8865993,0.7 18.2,1.01340068 18.2,1.4 L18.2,7 C18.2,7.38659932 17.8865993,7.7 17.5,7.7 L11.9,7.7 C11.5134007,7.7 11.2,7.38659932 11.2,7 L11.2,1.4 C11.2,1.01340068 11.5134007,0.7 11.9,0.7 Z M0.7,11.9 L6.3,11.9 C6.68659932,11.9 7,12.2134007 7,12.6 L7,18.2 C7,18.5865993 6.68659932,18.9 6.3,18.9 L0.7,18.9 C0.313400675,18.9 3.6500856e-13,18.5865993 3.63931107e-13,18.2 L3.64153152e-13,12.6 C3.64105807e-13,12.2134007 0.313400675,11.9 0.7,11.9 Z M11.9,11.9 L17.5,11.9 C17.8865993,11.9 18.2,12.2134007 18.2,12.6 L18.2,18.2 C18.2,18.5865993 17.8865993,18.9 17.5,18.9 L11.9,18.9 C11.5134007,18.9 11.2,18.5865993 11.2,18.2 L11.2,12.6 C11.2,12.2134007 11.5134007,11.9 11.9,11.9 Z" fill-rule="nonzero" fill="#faf9fa"></path></svg>